<svg id="Layer_1" data-name="Layer 1" xmlns="http://www.w3.org/2000/svg" viewBox="0 0 431.63 715.75"><defs><style>.cls-1,.cls-4{font-size:36px;font-family:MyriadPro-Regular, Myriad Pro;}.cls-1,.cls-3,.cls-4{fill:#231f20;}.cls-1,.cls-5{letter-spacing:0em;}.cls-2{letter-spacing:0em;}.cls-6{letter-spacing:0.02em;}.cls-7{letter-spacing:-0.01em;}.cls-8{letter-spacing:0em;}.cls-9{letter-spacing:-0.01em;}.cls-10{letter-spacing:0em;}</style></defs><text class="cls-1" transform="translate(144.29 30.13)">A<tspan class="cls-2" x="21.92" y="0">lphabets</tspan></text><text x="-16.23" y="-56.97"/><path class="cls-3" d="M95.12,134a37.06,37.06,0,0,0-23,2.57c-6.35,3-11.78,8.73-12.72,15.89-1.09,8.25,4.84,15.17,8.47,22A79.43,79.43,0,0,1,76,197.77a47.4,47.4,0,0,1,1,11.45c-.21,2.89-2.15,4.33-4.58,5.06-6.25,1.87-13.38.09-19.38-1.88-6.23-2.05-13.46-5.46-15.85-12.08a12.66,12.66,0,0,1-.06-8.69,16.44,16.44,0,0,1,5.59-7.06c6-4.7,13.87-6.82,21.28-8.16,8.59-1.55,17.37-2.11,26.06-2.95l6.91-.67a2.57,2.57,0,0,0,2.5-2.5,2.52,2.52,0,0,0-2.5-2.5c-9.28.9-18.6,1.6-27.84,2.82-8.49,1.12-17,2.82-24.66,6.92-6.48,3.49-12.1,9-13,16.59s3.7,14.31,9.8,18.32a44.69,44.69,0,0,0,11,5,54.87,54.87,0,0,0,11.18,2.39c6.29.61,15-.15,17.74-6.95,1.44-3.61.71-8.09.24-11.84a82,82,0,0,0-2.59-12.78A87.14,87.14,0,0,0,74.25,176c-1.86-4-4.14-7.77-6.37-11.59-1.87-3.2-3.75-6.7-3.6-10.52a13.24,13.24,0,0,1,3.54-8.1c5-5.59,13-7.74,20.25-7.63a31.37,31.37,0,0,1,5.72.6,2.55,2.55,0,0,0,3.07-1.75A2.52,2.52,0,0,0,95.12,134Z" transform="translate(-16.23 -56.97)"/><path class="cls-3" d="M33.49,277a223.31,223.31,0,0,0,48.86-19l-3-3.92c-9.76,10.34-15.8,23.39-20.5,36.66-2.43,6.84-4.51,13.81-6.61,20.76-1,3.48-2.07,7-3.19,10.44a42.09,42.09,0,0,1-4.27,9.8c-3,4.69-9.41,9.06-14.41,5.09-4.3-3.41-5.45-10.12-6.16-15.29-.45-3.3-1.19-7.21,0-10.42,1.1-3,4-4.88,6.47-6.56a145.2,145.2,0,0,1,20.44-11.46,136.37,136.37,0,0,1,43.74-11.86q2.79-.27,5.61-.43c3.2-.17,3.22-5.17,0-5a142.53,142.53,0,0,0-47.35,11,147.36,147.36,0,0,0-21.79,11.37c-3.18,2-6.67,4.07-9.16,6.93-2.85,3.28-3.76,7.23-3.49,11.51.41,6.56,1.36,13.85,4.74,19.62a14.5,14.5,0,0,0,6.74,6.21,13.06,13.06,0,0,0,10.78-.55c7.27-3.42,10.59-11.45,12.91-18.62s4.39-14.59,6.69-21.86c4.39-13.89,9.52-28.19,18.74-39.69,1.14-1.42,2.34-2.79,3.58-4.11a2.5,2.5,0,0,0-3-3.92,217.93,217.93,0,0,1-47.67,18.53c-3.11.8-1.8,5.62,1.33,4.82Z" transform="translate(-16.23 -56.97)"/><path class="cls-3" d="M20,386.33a249.8,249.8,0,0,1,24.06-10.88c8.23-3.2,16.68-6.29,25.39-7.86A46.09,46.09,0,0,1,82,367c2.63.25,7,.56,7,4.05,0,3.15-2,6.41-3.78,8.92A36,36,0,0,1,78.48,387c-6.07,5-13.32,8.44-20.39,11.73-2.56,1.19-.75,5.44,1.93,4.57a162.34,162.34,0,0,1,19.53-5.07c3-.58,6.49-1.56,9.58-1a12.85,12.85,0,0,1,6.41,3.53c6.22,5.95,6.73,15.58,3.95,23.41-3.2,9-11.29,15.06-20.34,17.45-9.32,2.46-20.44,1.47-28.66-3.81-4.59-2.95-7.94-8.8-4.6-13.93,1.38-2.12,3.53-3.7,5.47-5.28a27.15,27.15,0,0,0,6-6.18c1.75-2.71-2.58-5.22-4.32-2.52-2.9,4.49-8.21,6.75-11.25,11.18-3.75,5.44-2.39,12.62,1.8,17.37,3.95,4.48,10.11,6.95,15.81,8.26a45.17,45.17,0,0,0,16.83.61c11-1.64,21.61-8,26.58-18.17,4.35-8.93,4.91-20.67-1.18-29a20.82,20.82,0,0,0-7-6.23c-3.75-2-7.52-2-11.62-1.36a156.56,156.56,0,0,0-24.26,5.89L60.62,403c7-3.26,14-6.72,20.1-11.47a43.07,43.07,0,0,0,8-8,25.68,25.68,0,0,0,5-10.21,9.68,9.68,0,0,0-.61-6.32,8.51,8.51,0,0,0-4.68-3.86A23.94,23.94,0,0,0,82,362a43.26,43.26,0,0,0-6.83-.09c-9.59.62-18.84,3.72-27.8,7A262.52,262.52,0,0,0,17.49,382c-2.86,1.48-.34,5.79,2.52,4.32Z" transform="translate(-16.23 -56.97)"/><path class="cls-3" d="M66.69,464.71l3,66.1.84,18.71c.14,3.2,5.14,3.22,5,0l-3-66.1-.84-18.71c-.14-3.21-5.14-3.22-5,0Z" transform="translate(-16.23 -56.97)"/><path class="cls-3" d="M59,518.7a305.88,305.88,0,0,0,39.8-22.55l-3-.39c1,.93,1,2.37,1.13,3.63.17,2.3.31,4.59.46,6.89l.89,13.42,1.8,27.09,1,15.41a2.56,2.56,0,0,0,2.5,2.5,2.53,2.53,0,0,0,2.5-2.5q-1.87-28.22-3.74-56.42c-.17-2.48-.24-5-.52-7.47a9.51,9.51,0,0,0-2.5-6.09,2.56,2.56,0,0,0-3-.39,307.23,307.23,0,0,1-39.81,22.56,2.52,2.52,0,0,0-.89,3.42,2.55,2.55,0,0,0,3.42.89Z" transform="translate(-16.23 -56.97)"/><path class="cls-3" d="M43.26,494.53,25,523.06c-1.43,2.24-3.26,4.83-1.47,7.44,1.4,2,4.48,2.88,6.66,3.74A61.94,61.94,0,0,0,44.86,538a63.09,63.09,0,0,0,17.36-.23A2.51,2.51,0,0,0,64,534.65a2.55,2.55,0,0,0-3.07-1.75,57.31,57.31,0,0,1-26.44-2.42,47.53,47.53,0,0,1-6-2.41c-.17-.09-.6-.43-.75-.37s0,.41.11.36a2.63,2.63,0,0,0,.24-.44c.64-1.13,1.4-2.2,2.09-3.29l8.19-12.8,9.26-14.47c1.74-2.72-2.58-5.23-4.31-2.53Z" transform="translate(-16.23 -56.97)"/><path class="cls-3" d="M38.86,592.15A161,161,0,0,0,39,613.56c.12,1.72.28,3.43.46,5.15a21.14,21.14,0,0,0,.71,4.34c1.07,3.24,3.77,5.16,7.24,4.44A29.38,29.38,0,0,0,51.65,626c1.51-.56,3-1.14,4.51-1.74a92.25,92.25,0,0,0,9-4.06A64.55,64.55,0,0,0,79,609.75c4.3-4,8.7-8.25,14.48-10l-2.82-1.15a32.62,32.62,0,0,1,3.71,10.14c.87,4,1.6,8,2.32,11.94q2.19,12.25,3.7,24.62a2.57,2.57,0,0,0,2.5,2.5,2.52,2.52,0,0,0,2.5-2.5q-1.59-13-3.88-26c-.73-4.06-1.47-8.13-2.37-12.15A36.26,36.26,0,0,0,95,596.09a2.56,2.56,0,0,0-2.82-1.15C81.88,598,75.94,607.25,67.41,613a75.8,75.8,0,0,1-15.86,7.72c-1.3.49-2.6,1-3.91,1.46-.94.33-1.92.76-2.38.08a6.4,6.4,0,0,1-.68-2.6c-.19-1.63-.34-3.27-.48-4.91a161.24,161.24,0,0,1-.24-22.63c.2-3.21-4.8-3.2-5,0Z" transform="translate(-16.23 -56.97)"/><path class="cls-3" d="M58.29,581.35a495.36,495.36,0,0,0,6.38,61.25q1.42,8.58,3.17,17.11a2.53,2.53,0,0,0,3.08,1.75,2.56,2.56,0,0,0,1.74-3.08,487.8,487.8,0,0,1-8.37-59.93q-.66-8.54-1-17.1c-.14-3.2-5.14-3.22-5,0Z" transform="translate(-16.23 -56.97)"/><path class="cls-3" d="M60.26,571.37c3.22,0,3.22-5,0-5s-3.22,5,0,5Z" transform="translate(-16.23 -56.97)"/><path class="cls-3" d="M46,706.1a239.65,239.65,0,0,0,5.53,37.21c.55,2.4,4.25,2.37,4.82,0A66.26,66.26,0,0,1,69.4,717c.51-.63.11.39-.12-.1s.38.4.26.25a5.41,5.41,0,0,1,.87,2.29c.42,2.3.56,5.36.91,7.93.75,5.54,1.77,11.05,3.06,16.49a167.73,167.73,0,0,0,5.51,18.36A2.56,2.56,0,0,0,83,764a2.52,2.52,0,0,0,1.75-3.07A165.81,165.81,0,0,1,76,724.86c-.33-2.69-.24-5.67-1.19-8.24-.84-2.28-2.55-4.6-5.22-4.64-3,0-4.72,2.65-6.32,4.8A69.36,69.36,0,0,0,51.52,742h4.82A231.27,231.27,0,0,1,51,706.1a2.56,2.56,0,0,0-2.5-2.5,2.51,2.51,0,0,0-2.5,2.5Z" transform="translate(-16.23 -56.97)"/><path class="cls-3" d="M25.32,720.42c11.23-10.82,28.47-14.27,43.32-10.15a38.74,38.74,0,0,1,20.2,13,26.45,26.45,0,0,1,5.28,11.2A21.38,21.38,0,0,1,92.61,747c-4.34,10.19-14.17,16.41-23.69,21.15-2.88,1.44-.35,5.75,2.53,4.32,9.43-4.7,18.78-10.79,24.09-20.18a26.84,26.84,0,0,0-.33-28.49c-9.68-16-29.7-22.21-47.44-19.48a48.11,48.11,0,0,0-26,12.6c-2.32,2.24,1.22,5.77,3.53,3.54Z" transform="translate(-16.23 -56.97)"/><path class="cls-3" d="M51,706.1a53.48,53.48,0,0,0-.93-7.87,21.47,21.47,0,0,1-.14-6.69,2.5,2.5,0,0,0-4.83-1.32,24.33,24.33,0,0,0,0,8.51A51.75,51.75,0,0,1,46,706.1a2.5,2.5,0,0,0,5,0Z" transform="translate(-16.23 -56.97)"/><text class="cls-4" transform="translate(170.93 131.73)"><tspan class="cls-5">A</tspan><tspan class="cls-6" x="21.92" y="0">k</tspan><tspan x="39.42" y="0">i</tspan></text><text class="cls-4" transform="translate(170.93 244.88)"><tspan class="cls-7">A</tspan><tspan x="21.82" y="0">si</tspan></text><text class="cls-4" transform="translate(170.93 345.32)">Lsi</text><text class="cls-4" transform="translate(173.74 456.43)"><tspan class="cls-8">L</tspan><tspan x="16.85" y="0">ti</tspan></text><text class="cls-4" transform="translate(170.93 570.1)">s<tspan class="cls-9" x="14.26" y="0">t</tspan><tspan class="cls-10" x="25.96" y="0">o</tspan></text><text class="cls-4" transform="translate(170.93 683.74)">s<tspan class="cls-6" x="14.26" y="0">k</tspan><tspan x="31.75" y="0">i</tspan></text><text x="-16.23" y="-56.97"/></svg>